<svg width="73" height="40" viewBox="0 0 73 40" fill="none" xmlns="http://www.w3.org/2000/svg">
<rect width="73" height="40" rx="6" fill="#EDF8FF"/>
<path d="M21.8906 21.7598H23.5996C23.5449 22.4115 23.3626 22.9925 23.0527 23.5029C22.7428 24.0088 22.3076 24.4076 21.7471 24.6992C21.1865 24.9909 20.5052 25.1367 19.7031 25.1367C19.0879 25.1367 18.5342 25.0273 18.042 24.8086C17.5498 24.5853 17.1283 24.2708 16.7773 23.8652C16.4264 23.4551 16.1576 22.9606 15.9707 22.3818C15.7884 21.8031 15.6973 21.1559 15.6973 20.4404V19.6133C15.6973 18.8978 15.7907 18.2507 15.9775 17.6719C16.1689 17.0931 16.4424 16.5986 16.7979 16.1885C17.1533 15.7738 17.5794 15.457 18.0762 15.2383C18.5775 15.0195 19.1403 14.9102 19.7646 14.9102C20.5576 14.9102 21.2275 15.056 21.7744 15.3477C22.3213 15.6393 22.7451 16.0426 23.0459 16.5576C23.3512 17.0726 23.5381 17.6628 23.6064 18.3281H21.8975C21.8519 17.8997 21.7516 17.5329 21.5967 17.2275C21.4463 16.9222 21.223 16.6898 20.9268 16.5303C20.6305 16.3662 20.2432 16.2842 19.7646 16.2842C19.3727 16.2842 19.0309 16.3571 18.7393 16.5029C18.4476 16.6488 18.2038 16.863 18.0078 17.1455C17.8118 17.4281 17.6637 17.7767 17.5635 18.1914C17.4678 18.6016 17.4199 19.071 17.4199 19.5996V20.4404C17.4199 20.9417 17.4632 21.3975 17.5498 21.8076C17.641 22.2132 17.7777 22.5618 17.96 22.8535C18.1468 23.1452 18.3838 23.3708 18.6709 23.5303C18.958 23.6898 19.3021 23.7695 19.7031 23.7695C20.1908 23.7695 20.585 23.6921 20.8857 23.5371C21.1911 23.3822 21.4212 23.1566 21.5762 22.8604C21.7357 22.5596 21.8405 22.1927 21.8906 21.7598ZM29.1641 23.5166V19.9893C29.1641 19.7249 29.1162 19.4971 29.0205 19.3057C28.9248 19.1143 28.779 18.9661 28.583 18.8613C28.3916 18.7565 28.1501 18.7041 27.8584 18.7041C27.5895 18.7041 27.3571 18.7497 27.1611 18.8408C26.9652 18.932 26.8125 19.055 26.7031 19.21C26.5938 19.3649 26.5391 19.5404 26.5391 19.7363H24.8984C24.8984 19.4447 24.9691 19.1621 25.1104 18.8887C25.2516 18.6152 25.4567 18.3714 25.7256 18.1572C25.9945 17.943 26.3158 17.7744 26.6895 17.6514C27.0632 17.5283 27.4824 17.4668 27.9473 17.4668C28.5033 17.4668 28.9954 17.5602 29.4238 17.7471C29.8568 17.9339 30.1963 18.2165 30.4424 18.5947C30.693 18.9684 30.8184 19.4378 30.8184 20.0029V23.291C30.8184 23.6283 30.8411 23.9313 30.8867 24.2002C30.9368 24.4645 31.0075 24.6947 31.0986 24.8906V25H29.4102C29.3327 24.8223 29.2712 24.5967 29.2256 24.3232C29.1846 24.0452 29.1641 23.7764 29.1641 23.5166ZM29.4033 20.502L29.417 21.5205H28.2344C27.929 21.5205 27.6602 21.5501 27.4277 21.6094C27.1953 21.6641 27.0016 21.7461 26.8467 21.8555C26.6917 21.9648 26.5755 22.097 26.498 22.252C26.4206 22.4069 26.3818 22.5824 26.3818 22.7783C26.3818 22.9743 26.4274 23.1543 26.5186 23.3184C26.6097 23.4779 26.7419 23.6032 26.915 23.6943C27.0928 23.7855 27.307 23.8311 27.5576 23.8311C27.8949 23.8311 28.1888 23.7627 28.4395 23.626C28.6947 23.4847 28.8952 23.3138 29.041 23.1133C29.1868 22.9082 29.2643 22.7145 29.2734 22.5322L29.8066 23.2637C29.752 23.4505 29.6585 23.651 29.5264 23.8652C29.3942 24.0794 29.221 24.2845 29.0068 24.4805C28.7972 24.6719 28.5443 24.8291 28.248 24.9521C27.9564 25.0752 27.6191 25.1367 27.2363 25.1367C26.7533 25.1367 26.3226 25.041 25.9443 24.8496C25.5661 24.6536 25.2699 24.3916 25.0557 24.0635C24.8415 23.7308 24.7344 23.3548 24.7344 22.9355C24.7344 22.5436 24.8073 22.1973 24.9531 21.8965C25.1035 21.5911 25.3223 21.3359 25.6094 21.1309C25.901 20.9258 26.2565 20.7708 26.6758 20.666C27.0951 20.5566 27.5736 20.502 28.1113 20.502H29.4033ZM34.1748 19.1826V25H32.5273V17.6035H34.0791L34.1748 19.1826ZM33.8809 21.0283L33.3477 21.0215C33.3522 20.4974 33.4251 20.0166 33.5664 19.5791C33.7122 19.1416 33.9128 18.7656 34.168 18.4512C34.4277 18.1367 34.7376 17.8952 35.0977 17.7266C35.4577 17.5534 35.8587 17.4668 36.3008 17.4668C36.6562 17.4668 36.9775 17.5169 37.2646 17.6172C37.5563 17.7129 37.8047 17.8701 38.0098 18.0889C38.2194 18.3076 38.3789 18.5924 38.4883 18.9434C38.5977 19.2897 38.6523 19.7158 38.6523 20.2217V25H36.998V20.2148C36.998 19.8594 36.9456 19.5791 36.8408 19.374C36.7406 19.1644 36.5924 19.0163 36.3965 18.9297C36.2051 18.8385 35.9658 18.793 35.6787 18.793C35.3962 18.793 35.1432 18.8522 34.9199 18.9707C34.6966 19.0892 34.5075 19.251 34.3525 19.4561C34.2021 19.6611 34.0859 19.8981 34.0039 20.167C33.9219 20.4359 33.8809 20.723 33.8809 21.0283ZM43.3555 23.8242C43.6243 23.8242 43.8659 23.7718 44.0801 23.667C44.2988 23.5576 44.4743 23.4072 44.6064 23.2158C44.7432 23.0244 44.8184 22.8034 44.832 22.5527H46.3838C46.3747 23.0312 46.2334 23.4665 45.96 23.8584C45.6865 24.2503 45.3242 24.5625 44.873 24.7949C44.4219 25.0228 43.9229 25.1367 43.376 25.1367C42.8109 25.1367 42.3187 25.041 41.8994 24.8496C41.4801 24.6536 41.1315 24.3848 40.8535 24.043C40.5755 23.7012 40.3659 23.307 40.2246 22.8604C40.0879 22.4137 40.0195 21.9352 40.0195 21.4248V21.1855C40.0195 20.6751 40.0879 20.1966 40.2246 19.75C40.3659 19.2988 40.5755 18.9023 40.8535 18.5605C41.1315 18.2188 41.4801 17.9521 41.8994 17.7607C42.3187 17.5648 42.8086 17.4668 43.3691 17.4668C43.9616 17.4668 44.4811 17.5853 44.9277 17.8223C45.3743 18.0547 45.7253 18.3805 45.9805 18.7998C46.2402 19.2145 46.3747 19.6976 46.3838 20.249H44.832C44.8184 19.9756 44.75 19.7295 44.627 19.5107C44.5085 19.2874 44.3398 19.1097 44.1211 18.9775C43.9069 18.8454 43.6494 18.7793 43.3486 18.7793C43.016 18.7793 42.7402 18.8477 42.5215 18.9844C42.3027 19.1165 42.1318 19.2988 42.0088 19.5312C41.8857 19.7591 41.7969 20.0166 41.7422 20.3037C41.6921 20.5863 41.667 20.8802 41.667 21.1855V21.4248C41.667 21.7301 41.6921 22.0264 41.7422 22.3135C41.7923 22.6006 41.8789 22.8581 42.002 23.0859C42.1296 23.3092 42.3027 23.4893 42.5215 23.626C42.7402 23.7581 43.0182 23.8242 43.3555 23.8242ZM50.9092 25.1367C50.3623 25.1367 49.8678 25.0479 49.4258 24.8701C48.9883 24.6878 48.6146 24.4349 48.3047 24.1113C47.9993 23.7878 47.7646 23.4072 47.6006 22.9697C47.4365 22.5322 47.3545 22.0605 47.3545 21.5547V21.2812C47.3545 20.7025 47.4388 20.1784 47.6074 19.709C47.776 19.2396 48.0107 18.8385 48.3115 18.5059C48.6123 18.1686 48.9678 17.9111 49.3779 17.7334C49.7881 17.5557 50.2324 17.4668 50.7109 17.4668C51.2396 17.4668 51.7021 17.5557 52.0986 17.7334C52.4951 17.9111 52.8232 18.1618 53.083 18.4854C53.3473 18.8044 53.5433 19.1849 53.6709 19.627C53.8031 20.069 53.8691 20.5566 53.8691 21.0898V21.7939H48.1543V20.6113H52.2422V20.4814C52.2331 20.1852 52.1738 19.9072 52.0645 19.6475C51.9596 19.3877 51.7979 19.1781 51.5791 19.0186C51.3604 18.859 51.0687 18.7793 50.7041 18.7793C50.4307 18.7793 50.1868 18.8385 49.9727 18.957C49.763 19.071 49.5876 19.2373 49.4463 19.4561C49.305 19.6748 49.1956 19.9391 49.1182 20.249C49.0452 20.5544 49.0088 20.8984 49.0088 21.2812V21.5547C49.0088 21.8783 49.0521 22.179 49.1387 22.457C49.2298 22.7305 49.362 22.9697 49.5352 23.1748C49.7083 23.3799 49.918 23.5417 50.1641 23.6602C50.4102 23.7741 50.6904 23.8311 51.0049 23.8311C51.4014 23.8311 51.7546 23.7513 52.0645 23.5918C52.3743 23.4323 52.6432 23.2067 52.8711 22.915L53.7393 23.7559C53.5798 23.9883 53.3724 24.2116 53.1172 24.4258C52.862 24.6354 52.5498 24.8063 52.1807 24.9385C51.8161 25.0706 51.3923 25.1367 50.9092 25.1367ZM56.918 14.5V25H55.2637V14.5H56.918Z" fill="#1DA1F2"/>
</svg>
