<svg width="73" height="40" viewBox="0 0 73 40" fill="none" xmlns="http://www.w3.org/2000/svg">
<rect width="73" height="40" rx="6" fill="#1DA1F2"/>
<path d="M27.6133 22.4365C27.6133 22.2314 27.5814 22.0492 27.5176 21.8896C27.4583 21.7301 27.3512 21.5843 27.1963 21.4521C27.0413 21.32 26.8226 21.1924 26.54 21.0693C26.262 20.9417 25.9066 20.8118 25.4736 20.6797C24.9997 20.5339 24.5622 20.3721 24.1611 20.1943C23.7646 20.012 23.4183 19.8024 23.1221 19.5654C22.8258 19.3239 22.5957 19.0482 22.4316 18.7383C22.2676 18.4238 22.1855 18.0615 22.1855 17.6514C22.1855 17.2458 22.2699 16.8766 22.4385 16.5439C22.6117 16.2113 22.8555 15.9242 23.1699 15.6826C23.4889 15.4365 23.8649 15.2474 24.2979 15.1152C24.7308 14.9785 25.2093 14.9102 25.7334 14.9102C26.4717 14.9102 27.1074 15.0469 27.6406 15.3203C28.1784 15.5938 28.5908 15.9606 28.8779 16.4209C29.1696 16.8812 29.3154 17.3893 29.3154 17.9453H27.6133C27.6133 17.6172 27.5426 17.3278 27.4014 17.0771C27.2646 16.8219 27.055 16.6214 26.7725 16.4756C26.4945 16.3298 26.1413 16.2568 25.7129 16.2568C25.3073 16.2568 24.9701 16.3184 24.7012 16.4414C24.4323 16.5645 24.2318 16.7308 24.0996 16.9404C23.9674 17.1501 23.9014 17.387 23.9014 17.6514C23.9014 17.8382 23.9447 18.0091 24.0312 18.1641C24.1178 18.3145 24.25 18.4557 24.4277 18.5879C24.6055 18.7155 24.8288 18.8363 25.0977 18.9502C25.3665 19.0641 25.6833 19.1735 26.0479 19.2783C26.5993 19.4424 27.0801 19.6247 27.4902 19.8252C27.9004 20.0212 28.2422 20.2445 28.5156 20.4951C28.7891 20.7458 28.9941 21.0306 29.1309 21.3496C29.2676 21.6641 29.3359 22.0218 29.3359 22.4229C29.3359 22.8421 29.2516 23.2204 29.083 23.5576C28.9144 23.8903 28.6729 24.1751 28.3584 24.4121C28.0485 24.6445 27.6748 24.8245 27.2373 24.9521C26.8044 25.0752 26.3213 25.1367 25.7881 25.1367C25.3096 25.1367 24.8379 25.0729 24.373 24.9453C23.9128 24.8177 23.4935 24.624 23.1152 24.3643C22.737 24.0999 22.4362 23.7718 22.2129 23.3799C21.9896 22.9834 21.8779 22.5208 21.8779 21.9922H23.5938C23.5938 22.3158 23.6484 22.5915 23.7578 22.8193C23.8717 23.0472 24.029 23.234 24.2295 23.3799C24.43 23.5212 24.6624 23.626 24.9268 23.6943C25.1956 23.7627 25.4827 23.7969 25.7881 23.7969C26.1891 23.7969 26.5241 23.7399 26.793 23.626C27.0664 23.512 27.2715 23.3525 27.4082 23.1475C27.5449 22.9424 27.6133 22.7054 27.6133 22.4365ZM34.8594 23.5166V19.9893C34.8594 19.7249 34.8115 19.4971 34.7158 19.3057C34.6201 19.1143 34.4743 18.9661 34.2783 18.8613C34.0869 18.7565 33.8454 18.7041 33.5537 18.7041C33.2848 18.7041 33.0524 18.7497 32.8564 18.8408C32.6605 18.932 32.5078 19.055 32.3984 19.21C32.2891 19.3649 32.2344 19.5404 32.2344 19.7363H30.5938C30.5938 19.4447 30.6644 19.1621 30.8057 18.8887C30.9469 18.6152 31.152 18.3714 31.4209 18.1572C31.6898 17.943 32.0111 17.7744 32.3848 17.6514C32.7585 17.5283 33.1777 17.4668 33.6426 17.4668C34.1986 17.4668 34.6908 17.5602 35.1191 17.7471C35.5521 17.9339 35.8916 18.2165 36.1377 18.5947C36.3883 18.9684 36.5137 19.4378 36.5137 20.0029V23.291C36.5137 23.6283 36.5365 23.9313 36.582 24.2002C36.6322 24.4645 36.7028 24.6947 36.7939 24.8906V25H35.1055C35.028 24.8223 34.9665 24.5967 34.9209 24.3232C34.8799 24.0452 34.8594 23.7764 34.8594 23.5166ZM35.0986 20.502L35.1123 21.5205H33.9297C33.6243 21.5205 33.3555 21.5501 33.123 21.6094C32.8906 21.6641 32.6969 21.7461 32.542 21.8555C32.387 21.9648 32.2708 22.097 32.1934 22.252C32.1159 22.4069 32.0771 22.5824 32.0771 22.7783C32.0771 22.9743 32.1227 23.1543 32.2139 23.3184C32.305 23.4779 32.4372 23.6032 32.6104 23.6943C32.7881 23.7855 33.0023 23.8311 33.2529 23.8311C33.5902 23.8311 33.8841 23.7627 34.1348 23.626C34.39 23.4847 34.5905 23.3138 34.7363 23.1133C34.8822 22.9082 34.9596 22.7145 34.9688 22.5322L35.502 23.2637C35.4473 23.4505 35.3538 23.651 35.2217 23.8652C35.0895 24.0794 34.9163 24.2845 34.7021 24.4805C34.4925 24.6719 34.2396 24.8291 33.9434 24.9521C33.6517 25.0752 33.3145 25.1367 32.9316 25.1367C32.4486 25.1367 32.0179 25.041 31.6396 24.8496C31.2614 24.6536 30.9652 24.3916 30.751 24.0635C30.5368 23.7308 30.4297 23.3548 30.4297 22.9355C30.4297 22.5436 30.5026 22.1973 30.6484 21.8965C30.7988 21.5911 31.0176 21.3359 31.3047 21.1309C31.5964 20.9258 31.9518 20.7708 32.3711 20.666C32.7904 20.5566 33.2689 20.502 33.8066 20.502H35.0986ZM40.5332 23.6943L42.3447 17.6035H44.0537L41.4834 25H40.417L40.5332 23.6943ZM39.1455 17.6035L40.9912 23.7217L41.0801 25H40.0137L37.4297 17.6035H39.1455ZM48.2373 25.1367C47.6904 25.1367 47.196 25.0479 46.7539 24.8701C46.3164 24.6878 45.9427 24.4349 45.6328 24.1113C45.3275 23.7878 45.0928 23.4072 44.9287 22.9697C44.7646 22.5322 44.6826 22.0605 44.6826 21.5547V21.2812C44.6826 20.7025 44.7669 20.1784 44.9355 19.709C45.1042 19.2396 45.3389 18.8385 45.6396 18.5059C45.9404 18.1686 46.2959 17.9111 46.7061 17.7334C47.1162 17.5557 47.5605 17.4668 48.0391 17.4668C48.5677 17.4668 49.0303 17.5557 49.4268 17.7334C49.8232 17.9111 50.1514 18.1618 50.4111 18.4854C50.6755 18.8044 50.8714 19.1849 50.999 19.627C51.1312 20.069 51.1973 20.5566 51.1973 21.0898V21.7939H45.4824V20.6113H49.5703V20.4814C49.5612 20.1852 49.502 19.9072 49.3926 19.6475C49.2878 19.3877 49.126 19.1781 48.9072 19.0186C48.6885 18.859 48.3968 18.7793 48.0322 18.7793C47.7588 18.7793 47.515 18.8385 47.3008 18.957C47.0911 19.071 46.9157 19.2373 46.7744 19.4561C46.6331 19.6748 46.5238 19.9391 46.4463 20.249C46.3734 20.5544 46.3369 20.8984 46.3369 21.2812V21.5547C46.3369 21.8783 46.3802 22.179 46.4668 22.457C46.5579 22.7305 46.6901 22.9697 46.8633 23.1748C47.0365 23.3799 47.2461 23.5417 47.4922 23.6602C47.7383 23.7741 48.0186 23.8311 48.333 23.8311C48.7295 23.8311 49.0827 23.7513 49.3926 23.5918C49.7025 23.4323 49.9714 23.2067 50.1992 22.915L51.0674 23.7559C50.9079 23.9883 50.7005 24.2116 50.4453 24.4258C50.1901 24.6354 49.8779 24.8063 49.5088 24.9385C49.1442 25.0706 48.7204 25.1367 48.2373 25.1367Z" fill="white"/>
</svg>
